<?xml version="1.0" encoding="UTF-8" standalone="no"?>
<!-- Created with Inkscape (http://www.inkscape.org/) -->

<svg
   version="1.1"
   id="svg1"
   width="2700"
   height="800"
   viewBox="0 0 2700 799.99999"
   xmlns="http://www.w3.org/2000/svg"
   xmlns:svg="http://www.w3.org/2000/svg">
  <defs
     id="defs1" />
  <g
     id="g1">
    <path
       d="m 0,10 v 580 a 10,10 45 0 0 10,10 h 280 a 10,10 135 0 0 10,-10 V 510 A 10,10 45 0 0 290,500 H 110 A 10,10 45 0 1 100,490 V 310 a 10,10 135 0 1 10,-10 h 180 a 10,10 135 0 0 10,-10 V 210 A 10,10 45 0 0 290,200 H 110 A 10,10 45 0 1 100,190 V 10 A 10,10 45 0 0 90,0 H 10 A 10,10 135 0 0 0,10 Z m 300,300 v 180 a 10,10 45 0 0 10,10 h 80 a 10,10 135 0 0 10,-10 V 310 a 10,10 45 0 0 -10,-10 h -80 a 10,10 135 0 0 -10,10 z M 500,10 v 80 a 10,10 45 0 0 10,10 h 80 A 10,10 135 0 0 600,90 V 10 A 10,10 45 0 0 590,0 h -80 a 10,10 135 0 0 -10,10 z m 300,0 v 180 a 10,10 135 0 1 -10,10 h -80 a 10,10 135 0 0 -10,10 v 80 a 10,10 45 0 0 10,10 h 80 a 10,10 45 0 1 10,10 v 180 a 10,10 45 0 0 10,10 h 80 a 10,10 135 0 0 10,-10 V 310 a 10,10 135 0 1 10,-10 h 180 a 10,10 135 0 0 10,-10 v -80 a 10,10 45 0 0 -10,-10 H 910 A 10,10 45 0 1 900,190 V 10 A 10,10 45 0 0 890,0 h -80 a 10,10 135 0 0 -10,10 z m 100,500 v 80 a 10,10 45 0 0 10,10 h 180 a 10,10 135 0 0 10,-10 v -80 a 10,10 45 0 0 -10,-10 H 910 a 10,10 135 0 0 -10,10 z M 500,210 v 380 a 10,10 45 0 0 10,10 h 80 a 10,10 135 0 0 10,-10 V 210 a 10,10 45 0 0 -10,-10 h -80 a 10,10 135 0 0 -10,10 z m 700,0 v 280 a 10,10 45 0 0 10,10 h 80 a 10,10 135 0 0 10,-10 V 210 a 10,10 45 0 0 -10,-10 h -80 a 10,10 135 0 0 -10,10 z m 100,300 v 80 a 10,10 45 0 0 10,10 h 80 a 10,10 135 0 0 10,-10 v -80 a 10,10 45 0 0 -10,-10 h -80 a 10,10 135 0 0 -10,10 z m 110,-10 h 80 a 10,10 135 0 0 10,-10 V 210 a 10,10 45 0 0 -10,-10 h -80 a 10,10 135 0 0 -10,10 v 280 a 10,10 45 0 0 10,10 z m 90,10 v 80 a 10,10 45 0 0 10,10 h 80 a 10,10 135 0 0 10,-10 v -80 a 10,10 45 0 0 -10,-10 h -80 a 10,10 135 0 0 -10,10 z m 110,-10 h 80 a 10,10 135 0 0 10,-10 V 210 a 10,10 45 0 0 -10,-10 h -80 a 10,10 135 0 0 -10,10 v 280 a 10,10 45 0 0 10,10 z m 290,-290 v 80 a 10,10 45 0 0 10,10 h 180 a 10,10 135 0 0 10,-10 v -80 a 10,10 45 0 0 -10,-10 h -180 a 10,10 135 0 0 -10,10 z m 200,100 v 180 a 10,10 135 0 1 -10,10 h -180 a 10,10 135 0 0 -10,10 v 80 a 10,10 45 0 0 10,10 h 280 a 10,10 135 0 0 10,-10 V 310 a 10,10 45 0 0 -10,-10 h -80 a 10,10 135 0 0 -10,10 z M 1900,490 V 310 a 10,10 45 0 0 -10,-10 h -80 a 10,10 135 0 0 -10,10 v 180 a 10,10 45 0 0 10,10 h 80 a 10,10 135 0 0 10,-10 z m 400,-280 v 280 a 10,10 45 0 0 10,10 h 80 a 10,10 135 0 0 10,-10 V 210 a 10,10 45 0 0 -10,-10 h -80 a 10,10 135 0 0 -10,10 z m 100,300 v 80 a 10,10 45 0 0 10,10 h 180 a 10,10 45 0 1 10,10 v 80 a 10,10 45 0 0 10,10 h 80 a 10,10 135 0 0 10,-10 V 210 a 10,10 45 0 0 -10,-10 h -80 a 10,10 135 0 0 -10,10 v 280 a 10,10 135 0 1 -10,10 h -180 a 10,10 135 0 0 -10,10 z m 190,190 h -180 a 10,10 135 0 0 -10,10 v 80 a 10,10 45 0 0 10,10 h 180 a 10,10 135 0 0 10,-10 v -80 a 10,10 45 0 0 -10,-10 z"
       style="fill:#000000;stroke-width:312.5"
       id="path1" />
  </g>
</svg>
